<svg width="28" height="34" viewBox="0 0 28 34" fill="none" xmlns="http://www.w3.org/2000/svg">
<path d="M22.4013 17C22.4013 14.6426 20.977 12.6238 18.9555 11.7738L17.879 14.3902C18.8898 14.8152 19.5987 15.8246 19.5987 17.0066C19.5987 18.182 18.8898 19.1914 17.879 19.623L18.9555 22.2395C20.977 21.3762 22.4013 19.3574 22.4013 17V17ZM21.1083 6.54102L20.0319 9.15742C23.0708 10.4391 25.2039 13.4672 25.2039 17C25.2039 20.5395 23.0708 23.5609 20.0319 24.8426L21.1083 27.459C25.158 25.7523 28 21.7148 28 17C28 12.2852 25.158 8.24766 21.1083 6.54102ZM0 9.91445V24.0789H5.59869L15.398 34V0L5.59869 9.91445H0Z" fill="#D9EDA2"/>
</svg>
